<svg xmlns="http://www.w3.org/2000/svg" viewBox="0 0 5000 4450"><g fill="#081621"><path d="M2375 4071c-33-16-72-41-87-57-38-41-68-112-68-164 0-68 38-166 82-210l38-38v-268c0-244 2-273 20-311 35-78 119-104 200-63 36 18 70 55 82 90 3 9 2 135-2 280l-7 265 44 48c106 114 110 235 11 358-81 101-195 127-313 70zM3370 3906c-137-31-215-72-299-158-67-68-102-128-132-223-19-63-21-86-17-299 4-204 6-237 24-282 60-148 180-255 354-314 57-20 91-23 275-27 195-5 217-4 293 17 180 49 324 186 389 372 28 80 26 372-2 443-35 89-109 218-145 255-20 19-52 56-73 81-42 53-125 99-232 129-57 16-98 20-225 19-85-1-180-7-210-13zm375-334c70-36 122-89 157-160 32-64 33-71 33-187 0-104-3-125-22-161-26-49-92-110-142-131-84-37-334-33-409 6-32 17-70 56-96 100-20 33-25 97-19 250 6 163 6 164 37 204 70 91 119 109 291 104 107-4 138-8 170-25zM1192 3896c-170-33-309-147-400-329-61-121-74-180-79-352-6-177 4-233 57-325 76-129 181-208 335-250 68-19 114-23 296-27 199-5 223-3 295 17 160 43 300 186 344 350 18 68 14 464-6 554-20 89-21 91-106 196-78 96-143 143-223 160-84 18-429 22-513 6zm434-319c17-9 47-34 67-56 42-47 43-51 38-296-4-160-8-171-90-248-62-58-96-67-252-67-189 0-266 34-321 144-29 58-30 64-25 156 6 113 26 181 70 247 39 56 116 118 166 132 56 16 310 7 347-12zM4140 2439c-72-11-101-27-155-83l-52-53-54 8c-30 4-159 8-287 8-259 1-279-3-322-62-18-23-24-44-23-80 1-56 22-91 72-120 35-21 117-25 439-18l193 4 31-37c43-52 100-78 183-84 88-5 140 8 200 54 55 43 95 118 95 181 0 57-42 168-77 205-59 62-152 92-243 77zM737 2425c-141-39-220-164-195-308 17-99 86-170 193-202 117-34 176-17 275 79l50 49 153-6c83-4 208-10 277-13 116-6 129-5 168 15 55 28 82 72 82 134 0 58-19 98-61 128-31 22-33 22-293 15-363-11-332-14-374 35-68 79-164 105-275 74zM1178 1750c-31-5-91-24-135-41-65-28-90-45-153-109-75-75-146-181-169-252-18-54-16-297 3-383 35-161 144-308 298-403 105-65 282-97 488-89 124 4 142 8 218 38 104 42 183 111 246 212 69 112 76 148 76 386-1 315-11 361-110 478-64 76-117 114-200 143-59 21-86 23-285 26-121 1-245-1-277-6zm444-320c33-18 78-61 94-92 11-20 14-71 14-206V954l-29-46c-48-76-96-102-214-117-81-10-204 5-268 33-53 22-134 100-160 153-19 40-23 64-23 148 0 111 20 173 72 228 35 38 106 79 151 88 54 12 335 3 363-11zM3284 1740c-73-15-138-56-205-128-136-148-158-219-159-517 0-162 2-188 24-257 54-177 144-265 341-335 78-27 85-28 290-28l210 1 77 31c234 98 355 245 399 489 27 154 26 312-4 384-50 119-141 235-230 292-103 66-132 71-432 74-148 1-289-1-311-6zm456-296c38-11 69-31 108-67 77-73 92-109 92-232 0-89-3-106-29-160-28-61-94-131-147-158-167-85-424-50-501 67-29 44-33 100-20 266 12 143 13 147 46 189 38 47 91 85 142 100 57 16 249 13 309-5zM2445 1448c-35-19-66-52-86-90-17-34-19-61-19-287V822l-36-43c-50-60-65-94-71-159-12-126 39-223 141-271 74-35 133-37 210-9 96 36 176 148 176 246 0 52-44 147-84 181-25 22-26 26-28 155-1 73-3 194-3 268 0 125-2 138-25 180-42 75-119 110-175 78z"/></g><path fill="#249BEC" d="M2375 2562c-141-42-204-95-253-214-54-130-42-280 33-393 76-114 195-170 360-170 82 0 96 3 167 37 93 44 155 100 192 172 22 44 29 73 33 149 8 134-16 211-94 301-50 58-66 69-137 97-102 41-210 48-301 21z"/></svg>